name Walk1.mot
datacolumns 19
datarows 27
range 1.63600000 1.66200000
endheader

                time	   L_ground_force_vx	   L_ground_force_vy	   L_ground_force_vz	   L_ground_force_px	   L_ground_force_py	   L_ground_force_pz	   R_ground_force_vx	   R_ground_force_vy	   R_ground_force_vz	   R_ground_force_px	   R_ground_force_py	   R_ground_force_pz	   L_ground_torque_x	   L_ground_torque_y	   L_ground_torque_z	   R_ground_torque_x	   R_ground_torque_y	   R_ground_torque_z	
          1.63600000	          0.00000000	          0.00000000	          0.00000000	          0.00000000	          0.00000000	          0.00000000	          0.00000000	          0.00000000	          0.00000000	          0.00000000	          0.00000000	          0.00000000	          0.00000000	          0.00000000	          0.00000000	          0.00000000	          0.00000000	          0.00000000	
          1.63700000	          0.00000000	          0.00000000	          0.00000000	          0.00000000	          0.00000000	          0.00000000	          0.00000000	          0.00000000	          0.00000000	          0.00000000	          0.00000000	          0.00000000	          0.00000000	          0.00000000	          0.00000000	          0.00000000	          0.00000000	          0.00000000	
          1.63800000	          0.00000000	          0.00000000	          0.00000000	          0.00000000	          0.00000000	          0.00000000	          2.24241015	         12.36135338	         -2.15409884	         -0.39868896	          0.00000000	         -0.00864165	          0.00000000	          0.00000000	          0.00000000	          0.00000000	         -0.06051426	          0.00000000	
          1.63900000	          0.00000000	          0.00000000	          0.00000000	          0.00000000	          0.00000000	          0.00000000	          4.20139932	         29.77453362	         -3.47226534	         -0.39555180	          0.00000000	         -0.01348962	          0.00000000	          0.00000000	          0.00000000	          0.00000000	         -0.09315595	          0.00000000	
          1.64000000	          0.00000000	          0.00000000	          0.00000000	          0.00000000	          0.00000000	          0.00000000	          6.78548570	         57.06972651	         -4.81791259	         -0.39370405	          0.00000000	         -0.01600707	          0.00000000	          0.00000000	          0.00000000	          0.00000000	         -0.12684754	          0.00000000	
          1.64100000	          0.00000000	          0.00000000	          0.00000000	          0.00000000	          0.00000000	          0.00000000	         10.03217168	         95.08830748	         -6.01758828	         -0.39215480	          0.00000000	         -0.01740085	          0.00000000	          0.00000000	          0.00000000	          0.00000000	         -0.15298357	          0.00000000	
          1.64200000	          0.00000000	          0.00000000	          0.00000000	          0.00000000	          0.00000000	          0.00000000	         13.90496842	        142.29040342	         -7.00945089	         -0.39078786	          0.00000000	         -0.01811998	          0.00000000	          0.00000000	          0.00000000	          0.00000000	         -0.16152941	          0.00000000	
          1.64300000	          0.00000000	          0.00000000	          0.00000000	          0.00000000	          0.00000000	          0.00000000	         18.16486619	        194.04000212	         -7.89879702	         -0.38968703	          0.00000000	         -0.01839791	          0.00000000	          0.00000000	          0.00000000	          0.00000000	         -0.15223168	          0.00000000	
          1.64400000	          0.00000000	          0.00000000	          0.00000000	          0.00000000	          0.00000000	          0.00000000	         22.30318751	        243.36189036	         -8.93172514	         -0.38891263	          0.00000000	         -0.01837122	          0.00000000	          0.00000000	          0.00000000	          0.00000000	         -0.13846870	          0.00000000	
          1.64500000	          0.00000000	          0.00000000	          0.00000000	          0.00000000	          0.00000000	          0.00000000	         25.63486490	        283.43926596	        -10.41660468	         -0.38844290	          0.00000000	         -0.01814939	          0.00000000	          0.00000000	          0.00000000	          0.00000000	         -0.13413375	          0.00000000	
          1.64600000	          0.00000000	          0.00000000	          0.00000000	          0.00000000	          0.00000000	          0.00000000	         27.52981246	        310.27543012	        -12.60172418	         -0.38818918	          0.00000000	         -0.01781541	          0.00000000	          0.00000000	          0.00000000	          0.00000000	         -0.13934501	          0.00000000	
          1.64700000	          0.00000000	          0.00000000	          0.00000000	          0.00000000	          0.00000000	          0.00000000	         27.64751967	        323.70534935	        -15.54087333	         -0.38802596	          0.00000000	         -0.01741373	          0.00000000	          0.00000000	          0.00000000	          0.00000000	         -0.14182786	          0.00000000	
          1.64800000	          0.00000000	          0.00000000	          0.00000000	          0.00000000	          0.00000000	          0.00000000	         26.02094765	        326.50303037	        -19.04499304	         -0.38782738	          0.00000000	         -0.01697967	          0.00000000	          0.00000000	          0.00000000	          0.00000000	         -0.12982379	          0.00000000	
          1.64900000	          0.00000000	          0.00000000	          0.00000000	          0.00000000	          0.00000000	          0.00000000	         22.97166068	        322.66770441	        -22.77342642	         -0.38751245	          0.00000000	         -0.01655952	          0.00000000	          0.00000000	          0.00000000	          0.00000000	         -0.10148313	          0.00000000	
          1.65000000	          0.00000000	          0.00000000	          0.00000000	          0.00000000	          0.00000000	          0.00000000	         18.94808070	        316.00955737	        -26.37838622	         -0.38707477	          0.00000000	         -0.01618344	          0.00000000	          0.00000000	          0.00000000	          0.00000000	         -0.06312231	          0.00000000	
          1.65100000	          0.00000000	          0.00000000	          0.00000000	          0.00000000	          0.00000000	          0.00000000	         14.37180774	        309.46007593	        -29.60017415	         -0.38656611	          0.00000000	         -0.01583090	          0.00000000	          0.00000000	          0.00000000	          0.00000000	         -0.02275518	          0.00000000	
          1.65200000	          0.00000000	          0.00000000	          0.00000000	          0.00000000	          0.00000000	          0.00000000	          9.54298422	        304.89410529	        -32.30554293	         -0.38604796	          0.00000000	         -0.01544231	          0.00000000	          0.00000000	          0.00000000	          0.00000000	          0.01435731	          0.00000000	
          1.65300000	          0.00000000	          0.00000000	          0.00000000	          0.00000000	          0.00000000	          0.00000000	          4.61803000	        303.17493969	        -34.48874528	         -0.38554154	          0.00000000	         -0.01499963	          0.00000000	          0.00000000	          0.00000000	          0.00000000	          0.04924411	          0.00000000	
          1.65400000	          0.00000000	          0.00000000	          0.00000000	          0.00000000	          0.00000000	          0.00000000	         -0.36810175	        304.34576997	        -36.23759716	         -0.38500248	          0.00000000	         -0.01458792	          0.00000000	          0.00000000	          0.00000000	          0.00000000	          0.08902414	          0.00000000	
          1.65500000	          0.00000000	          0.00000000	          0.00000000	          0.00000000	          0.00000000	          0.00000000	         -5.46651074	        307.92558717	        -37.68291409	         -0.38436643	          0.00000000	         -0.01433477	          0.00000000	          0.00000000	          0.00000000	          0.00000000	          0.14075722	          0.00000000	
          1.65600000	          0.00000000	          0.00000000	          0.00000000	          0.00000000	          0.00000000	          0.00000000	        -10.77597185	        313.20088556	        -38.95527591	         -0.38362859	          0.00000000	         -0.01430077	          0.00000000	          0.00000000	          0.00000000	          0.00000000	          0.20556839	          0.00000000	
          1.65700000	          0.00000000	          0.00000000	          0.00000000	          0.00000000	          0.00000000	          0.00000000	        -16.39415235	        319.41628133	        -40.15452986	         -0.38285032	          0.00000000	         -0.01444313	          0.00000000	          0.00000000	          0.00000000	          0.00000000	          0.27649453	          0.00000000	
          1.65800000	          0.00000000	          0.00000000	          0.00000000	          0.00000000	          0.00000000	          0.00000000	        -22.36253285	        325.89028404	        -41.33008097	         -0.38209158	          0.00000000	         -0.01465314	          0.00000000	          0.00000000	          0.00000000	          0.00000000	          0.34142583	          0.00000000	
          1.65900000	          0.00000000	          0.00000000	          0.00000000	          0.00000000	          0.00000000	          0.00000000	        -28.65114642	        332.14699069	        -42.47673004	         -0.38136302	          0.00000000	         -0.01481018	          0.00000000	          0.00000000	          0.00000000	          0.00000000	          0.39476475	          0.00000000	
          1.66000000	          0.00000000	          0.00000000	          0.00000000	          0.00000000	          0.00000000	          0.00000000	        -35.19892680	        338.01018619	        -43.54937456	         -0.38064225	          0.00000000	         -0.01485304	          0.00000000	          0.00000000	          0.00000000	          0.00000000	          0.44670027	          0.00000000	
          1.66100000	          0.00000000	          0.00000000	          0.00000000	          0.00000000	          0.00000000	          0.00000000	        -41.94565660	        343.52197369	        -44.48587724	         -0.37990972	          0.00000000	         -0.01483746	          0.00000000	          0.00000000	          0.00000000	          0.00000000	          0.51231877	          0.00000000	
          1.66200000	          0.00000000	          0.00000000	          0.00000000	          0.00000000	          0.00000000	          0.00000000	        -48.82130630	        348.74335933	        -45.22071713	         -0.37917504	          0.00000000	         -0.01487605	          0.00000000	          0.00000000	          0.00000000	          0.00000000	          0.59239583	          0.00000000	
